<svg width="25" height="25" viewBox="0 0 25 25" fill="none" xmlns="http://www.w3.org/2000/svg">
<path d="M19.7107 1.92375H17.3342V0.976562C17.3342 0.437164 16.897 0 16.3576 0H8.675C8.1356 0 7.69844 0.437164 7.69844 0.976562V1.92375H5.32227C3.97606 1.92375 2.88086 3.01895 2.88086 4.36516V22.5586C2.88086 23.9048 3.97606 25 5.32227 25H19.7107C21.0569 25 22.1521 23.9048 22.1521 22.5586V4.36516C22.1521 3.01895 21.0567 1.92375 19.7107 1.92375ZM15.3811 1.95312V3.84769H9.65137C9.65137 3.19862 9.65137 2.66247 9.65137 1.95312H15.3811ZM20.199 22.5586C20.199 22.8279 19.9799 23.0469 19.7107 23.0469H5.32227C5.05295 23.0469 4.83398 22.8279 4.83398 22.5586V4.36516C4.83398 4.09603 5.05295 3.87688 5.32227 3.87688H7.69825V4.82426C7.69825 5.36366 8.1356 5.80082 8.67481 5.80082H16.3576C16.8968 5.80082 17.3342 5.36366 17.3342 4.82426V3.87688H19.7107C19.9799 3.87688 20.199 4.09603 20.199 4.36516V22.5586ZM17.0479 11.4023C17.4294 11.7838 17.4294 12.4022 17.0479 12.7834L11.916 17.9153C11.5347 18.2968 10.9163 18.2968 10.5349 17.9153L7.98454 15.365C7.60326 14.9837 7.60326 14.3654 7.98454 13.9839C8.36601 13.6026 8.98418 13.6026 9.36565 13.9839L11.2255 15.8438L15.6668 11.4025C16.0482 11.021 16.6664 11.021 17.0479 11.4023Z" fill="black"/>
</svg>
