<svg width="16" height="16" viewBox="0 0 16 16" fill="none" xmlns="http://www.w3.org/2000/svg">
<path d="M10.8506 9.41267L8.61975 7.73954V4.33136C8.61975 3.98867 8.34275 3.71167 8.00006 3.71167C7.65737 3.71167 7.38037 3.98867 7.38037 4.33136V8.04942C7.38037 8.24461 7.47209 8.42867 7.62825 8.54517L10.1069 10.4042C10.2185 10.4879 10.3486 10.5281 10.4781 10.5281C10.6671 10.5281 10.853 10.4432 10.9745 10.2796C11.1803 10.0063 11.1245 9.61779 10.8506 9.41267Z" fill="#322D2D"/>
<path d="M8 0C3.58853 0 0 3.58853 0 8C0 12.4115 3.58853 16 8 16C12.4115 16 16 12.4115 16 8C16 3.58853 12.4115 0 8 0ZM8 14.7607C4.27266 14.7607 1.23934 11.7273 1.23934 8C1.23934 4.27266 4.27266 1.23934 8 1.23934C11.728 1.23934 14.7607 4.27266 14.7607 8C14.7607 11.7273 11.7273 14.7607 8 14.7607Z" fill="#322D2D"/>
</svg>
