<svg width="24" height="24" viewBox="0 0 24 24" fill="none" xmlns="http://www.w3.org/2000/svg">
<path d="M24 12C24 18.6274 18.6274 24 12 24C5.37258 24 0 18.6274 0 12C0 5.37258 5.37258 0 12 0C18.6274 0 24 5.37258 24 12Z" fill="#333333"/>
<path d="M16.2858 17.1429C16.0664 17.1429 15.8471 17.0592 15.6797 16.8917L7.10835 8.32031C6.77345 7.98541 6.77345 7.44305 7.10835 7.10834C7.44307 6.77362 7.98561 6.77344 8.32032 7.10834L16.8917 15.6797C17.2266 16.0146 17.2266 16.5569 16.8917 16.8917C16.7243 17.0592 16.5051 17.1429 16.2858 17.1429Z" fill="#F9F9F9"/>
<path d="M7.71425 17.1429C7.49488 17.1429 7.27571 17.0592 7.10835 16.8917C6.77345 16.5569 6.77345 16.0144 7.10835 15.6797L15.6797 7.10834C16.0146 6.77344 16.557 6.77344 16.8917 7.10834C17.2264 7.44305 17.2266 7.9856 16.8917 8.32031L8.32032 16.8917C8.15297 17.0592 7.93361 17.1429 7.71425 17.1429Z" fill="#F9F9F9"/>
</svg>
