<svg width="16" height="16" viewBox="0 0 16 16" fill="none" xmlns="http://www.w3.org/2000/svg">
<g clip-path="url(#clip0_567_340)">
<path d="M15.4316 2.20716C15.0878 2.17581 14.7838 2.42909 14.7525 2.77284L14.6697 3.68125C13.2647 1.47481 10.8258 0 7.99991 0C4.95988 0 2.28078 1.73506 0.950846 4.33919C0.793846 4.64659 0.915784 5.02306 1.22319 5.18006C1.53066 5.33706 1.90706 5.21516 2.06406 4.90772C3.1896 2.70384 5.44981 1.25 7.99991 1.25C10.3242 1.25 12.4218 2.46034 13.6234 4.3565L12.7323 3.72003C12.4514 3.51944 12.061 3.5845 11.8604 3.86538C11.6598 4.14628 11.7249 4.53659 12.0058 4.73722L14.7081 6.66725C15.1042 6.94959 15.6505 6.69112 15.6938 6.21541L15.9973 2.88634C16.0286 2.54256 15.7754 2.2385 15.4316 2.20716Z" fill="#322D2D"/>
<path d="M14.7769 10.82C14.4695 10.663 14.0931 10.7849 13.9361 11.0923C12.8105 13.2962 10.5503 14.7501 8.00021 14.7501C5.67593 14.7501 3.57837 13.5397 2.37668 11.6435L3.26784 12.28C3.54874 12.4806 3.93905 12.4155 4.13968 12.1347C4.34027 11.8538 4.27521 11.4635 3.99433 11.2628L1.29199 9.33279C0.900773 9.05329 0.350085 9.30401 0.306335 9.78464L0.00286626 13.1137C-0.0284775 13.4575 0.224804 13.7615 0.568523 13.7929C0.91271 13.8241 1.21637 13.5706 1.24768 13.2272L1.33049 12.3188C2.73543 14.5252 5.1743 16.0001 8.00021 16.0001C11.0402 16.0001 13.7193 14.265 15.0493 11.6609C15.2063 11.3535 15.0843 10.977 14.7769 10.82Z" fill="#322D2D"/>
</g>
<defs>
<clipPath id="clip0_567_340">
<rect width="16" height="16" fill="white"/>
</clipPath>
</defs>
</svg>
