<svg width="16" height="16" viewBox="0 0 16 16" fill="none" xmlns="http://www.w3.org/2000/svg">
<path d="M14.3631 4.66728L14.7652 4.26516C14.8004 4.23044 14.8285 4.18908 14.8477 4.14346C14.867 4.09784 14.877 4.04887 14.8772 3.99937C14.8774 3.94987 14.8678 3.90081 14.8489 3.85504C14.8301 3.80927 14.8023 3.76768 14.7673 3.73268C14.7323 3.69767 14.6907 3.66995 14.645 3.65109C14.5992 3.63224 14.5501 3.62264 14.5006 3.62284C14.4511 3.62305 14.4022 3.63305 14.3565 3.65227C14.3109 3.67149 14.2696 3.69956 14.2348 3.73484L13.8163 4.15334C13.1098 3.57152 12.2717 3.17146 11.375 2.98809V2.125H11.75C11.8495 2.125 11.9448 2.08549 12.0152 2.01517C12.0855 1.94484 12.125 1.84946 12.125 1.75V0.5C12.125 0.400544 12.0855 0.305161 12.0152 0.234835C11.9448 0.164509 11.8495 0.125 11.75 0.125H8.75C8.65055 0.125 8.55516 0.164509 8.48484 0.234835C8.41451 0.305161 8.375 0.400544 8.375 0.5V1.75C8.375 1.84946 8.41451 1.94484 8.48484 2.01517C8.55516 2.08549 8.65055 2.125 8.75 2.125H9.125V2.98809C8.22832 3.17146 7.39015 3.57152 6.68366 4.15334L6.26516 3.73484C6.23044 3.69956 6.18908 3.67149 6.14346 3.65227C6.09784 3.63305 6.04887 3.62305 5.99937 3.62284C5.94987 3.62264 5.90081 3.63224 5.85504 3.65109C5.80927 3.66995 5.76768 3.69767 5.73268 3.73268C5.69767 3.76768 5.66995 3.80927 5.6511 3.85504C5.63225 3.90081 5.62264 3.94987 5.62285 3.99937C5.62305 4.04887 5.63305 4.09784 5.65227 4.14346C5.67149 4.18908 5.69956 4.23044 5.73485 4.26516L6.13694 4.66728C5.16456 5.70651 4.62401 7.07679 4.625 8.5C4.625 11.6016 7.14838 14.125 10.25 14.125C13.3516 14.125 15.875 11.6016 15.875 8.5C15.876 7.07679 15.3354 5.70651 14.3631 4.66728ZM9.125 0.875H11.375V1.375H9.125V0.875ZM9.875 2.125H10.625V2.88781C10.501 2.87959 10.376 2.875 10.25 2.875C10.124 2.875 9.999 2.87959 9.875 2.88781V2.125ZM10.25 13.375C7.56191 13.375 5.375 11.1881 5.375 8.5C5.375 5.81191 7.56191 3.625 10.25 3.625C12.9381 3.625 15.125 5.81191 15.125 8.5C15.125 11.1881 12.9381 13.375 10.25 13.375Z" fill="#322D2D"/>
<path d="M10.25 4.375C7.97547 4.375 6.125 6.22547 6.125 8.5C6.125 10.7745 7.97547 12.625 10.25 12.625C12.5245 12.625 14.375 10.7745 14.375 8.5C14.375 6.22547 12.5245 4.375 10.25 4.375ZM13.6041 8.125H10.625V5.14594C11.3854 5.2321 12.0941 5.57366 12.6352 6.11478C13.1763 6.65591 13.5179 7.3646 13.6041 8.125ZM10.25 11.875C9.38746 11.8749 8.5577 11.5446 7.93108 10.9519C7.30447 10.3591 6.92857 9.54899 6.88058 8.68779C6.83259 7.82659 7.11614 6.9797 7.67301 6.32102C8.22989 5.66234 9.01782 5.24186 9.875 5.14594V8.5C9.875 8.59946 9.91451 8.69484 9.98483 8.76517C10.0552 8.83549 10.1505 8.875 10.25 8.875H13.6041C13.5108 9.69962 13.1175 10.4611 12.4989 11.0144C11.8804 11.5676 11.0799 11.874 10.25 11.875Z" fill="#322D2D"/>
<path d="M4.25 5.875H1.75C1.65054 5.875 1.55516 5.91451 1.48483 5.98484C1.41451 6.05516 1.375 6.15054 1.375 6.25C1.375 6.34946 1.41451 6.44484 1.48483 6.51516C1.55516 6.58549 1.65054 6.625 1.75 6.625H4.25C4.34946 6.625 4.44484 6.58549 4.51516 6.51516C4.58549 6.44484 4.625 6.34946 4.625 6.25C4.625 6.15054 4.58549 6.05516 4.51516 5.98484C4.44484 5.91451 4.34946 5.875 4.25 5.875Z" fill="#322D2D"/>
<path d="M4.125 9.25C4.125 9.15054 4.08549 9.05516 4.01516 8.98483C3.94484 8.91451 3.84946 8.875 3.75 8.875H1.25C1.15054 8.875 1.05516 8.91451 0.984835 8.98483C0.914509 9.05516 0.875 9.15054 0.875 9.25C0.875 9.34946 0.914509 9.44484 0.984835 9.51517C1.05516 9.58549 1.15054 9.625 1.25 9.625H3.75C3.84946 9.625 3.94484 9.58549 4.01516 9.51517C4.08549 9.44484 4.125 9.34946 4.125 9.25Z" fill="#322D2D"/>
<path d="M4 10.375H2.25C2.15054 10.375 2.05516 10.4145 1.98483 10.4848C1.91451 10.5552 1.875 10.6505 1.875 10.75C1.875 10.8495 1.91451 10.9448 1.98483 11.0152C2.05516 11.0855 2.15054 11.125 2.25 11.125H4C4.09946 11.125 4.19484 11.0855 4.26516 11.0152C4.33549 10.9448 4.375 10.8495 4.375 10.75C4.375 10.6505 4.33549 10.5552 4.26516 10.4848C4.19484 10.4145 4.09946 10.375 4 10.375Z" fill="#322D2D"/>
<path d="M4.125 7.75C4.125 7.65054 4.08549 7.55516 4.01516 7.48484C3.94484 7.41451 3.84946 7.375 3.75 7.375H0.5C0.400544 7.375 0.305161 7.41451 0.234835 7.48484C0.164509 7.55516 0.125 7.65054 0.125 7.75C0.125 7.84946 0.164509 7.94484 0.234835 8.01517C0.305161 8.08549 0.400544 8.125 0.5 8.125H3.75C3.84946 8.125 3.94484 8.08549 4.01516 8.01517C4.08549 7.94484 4.125 7.84946 4.125 7.75Z" fill="#322D2D"/>
</svg>
